G04 #@! TF.FileFunction,Legend,Bot*
%FSLAX46Y46*%
G04 Gerber Fmt 4.6, Leading zero omitted, Abs format (unit mm)*
G04 Created by KiCad (PCBNEW 4.0.1-stable) date 3/12/2016 5:35:57 PM*
%MOMM*%
G01*
G04 APERTURE LIST*
%ADD10C,0.100000*%
%ADD11C,0.200000*%
%ADD12C,0.150000*%
%ADD13C,0.010000*%
%ADD14C,0.010160*%
%ADD15C,0.075000*%
%ADD16C,0.124460*%
G04 APERTURE END LIST*
D10*
D11*
X135771430Y-96404762D02*
X135628573Y-96452381D01*
X135390477Y-96452381D01*
X135295239Y-96404762D01*
X135247620Y-96357143D01*
X135200001Y-96261905D01*
X135200001Y-96166667D01*
X135247620Y-96071429D01*
X135295239Y-96023810D01*
X135390477Y-95976190D01*
X135580954Y-95928571D01*
X135676192Y-95880952D01*
X135723811Y-95833333D01*
X135771430Y-95738095D01*
X135771430Y-95642857D01*
X135723811Y-95547619D01*
X135676192Y-95500000D01*
X135580954Y-95452381D01*
X135342858Y-95452381D01*
X135200001Y-95500000D01*
X134342858Y-96452381D02*
X134342858Y-95928571D01*
X134390477Y-95833333D01*
X134485715Y-95785714D01*
X134676192Y-95785714D01*
X134771430Y-95833333D01*
X134342858Y-96404762D02*
X134438096Y-96452381D01*
X134676192Y-96452381D01*
X134771430Y-96404762D01*
X134819049Y-96309524D01*
X134819049Y-96214286D01*
X134771430Y-96119048D01*
X134676192Y-96071429D01*
X134438096Y-96071429D01*
X134342858Y-96023810D01*
X133723811Y-96452381D02*
X133819049Y-96404762D01*
X133866668Y-96309524D01*
X133866668Y-95452381D01*
X132914286Y-95785714D02*
X132914286Y-96452381D01*
X133342858Y-95785714D02*
X133342858Y-96309524D01*
X133295239Y-96404762D01*
X133200001Y-96452381D01*
X133057143Y-96452381D01*
X132961905Y-96404762D01*
X132914286Y-96357143D01*
X132485715Y-96404762D02*
X132390477Y-96452381D01*
X132200001Y-96452381D01*
X132104762Y-96404762D01*
X132057143Y-96309524D01*
X132057143Y-96261905D01*
X132104762Y-96166667D01*
X132200001Y-96119048D01*
X132342858Y-96119048D01*
X132438096Y-96071429D01*
X132485715Y-95976190D01*
X132485715Y-95928571D01*
X132438096Y-95833333D01*
X132342858Y-95785714D01*
X132200001Y-95785714D01*
X132104762Y-95833333D01*
X130914286Y-96166667D02*
X130438095Y-96166667D01*
X131009524Y-96452381D02*
X130676191Y-95452381D01*
X130342857Y-96452381D01*
X129866667Y-96452381D02*
X129961905Y-96404762D01*
X130009524Y-96309524D01*
X130009524Y-95452381D01*
X129628571Y-95785714D02*
X129247619Y-95785714D01*
X129485714Y-95452381D02*
X129485714Y-96309524D01*
X129438095Y-96404762D01*
X129342857Y-96452381D01*
X129247619Y-96452381D01*
X128914285Y-96452381D02*
X128914285Y-95785714D01*
X128914285Y-95452381D02*
X128961904Y-95500000D01*
X128914285Y-95547619D01*
X128866666Y-95500000D01*
X128914285Y-95452381D01*
X128914285Y-95547619D01*
X128438095Y-96452381D02*
X128438095Y-95785714D01*
X128438095Y-95880952D02*
X128390476Y-95833333D01*
X128295238Y-95785714D01*
X128152380Y-95785714D01*
X128057142Y-95833333D01*
X128009523Y-95928571D01*
X128009523Y-96452381D01*
X128009523Y-95928571D02*
X127961904Y-95833333D01*
X127866666Y-95785714D01*
X127723809Y-95785714D01*
X127628571Y-95833333D01*
X127580952Y-95928571D01*
X127580952Y-96452381D01*
X126723809Y-96404762D02*
X126819047Y-96452381D01*
X127009524Y-96452381D01*
X127104762Y-96404762D01*
X127152381Y-96309524D01*
X127152381Y-95928571D01*
X127104762Y-95833333D01*
X127009524Y-95785714D01*
X126819047Y-95785714D01*
X126723809Y-95833333D01*
X126676190Y-95928571D01*
X126676190Y-96023810D01*
X127152381Y-96119048D01*
X126390476Y-95785714D02*
X126009524Y-95785714D01*
X126247619Y-95452381D02*
X126247619Y-96309524D01*
X126200000Y-96404762D01*
X126104762Y-96452381D01*
X126009524Y-96452381D01*
X125295237Y-96404762D02*
X125390475Y-96452381D01*
X125580952Y-96452381D01*
X125676190Y-96404762D01*
X125723809Y-96309524D01*
X125723809Y-95928571D01*
X125676190Y-95833333D01*
X125580952Y-95785714D01*
X125390475Y-95785714D01*
X125295237Y-95833333D01*
X125247618Y-95928571D01*
X125247618Y-96023810D01*
X125723809Y-96119048D01*
X124819047Y-96452381D02*
X124819047Y-95785714D01*
X124819047Y-95976190D02*
X124771428Y-95880952D01*
X124723809Y-95833333D01*
X124628571Y-95785714D01*
X124533332Y-95785714D01*
X133461904Y-105357143D02*
X133509523Y-105404762D01*
X133652380Y-105452381D01*
X133747618Y-105452381D01*
X133890476Y-105404762D01*
X133985714Y-105309524D01*
X134033333Y-105214286D01*
X134080952Y-105023810D01*
X134080952Y-104880952D01*
X134033333Y-104690476D01*
X133985714Y-104595238D01*
X133890476Y-104500000D01*
X133747618Y-104452381D01*
X133652380Y-104452381D01*
X133509523Y-104500000D01*
X133461904Y-104547619D01*
X132461904Y-105357143D02*
X132509523Y-105404762D01*
X132652380Y-105452381D01*
X132747618Y-105452381D01*
X132890476Y-105404762D01*
X132985714Y-105309524D01*
X133033333Y-105214286D01*
X133080952Y-105023810D01*
X133080952Y-104880952D01*
X133033333Y-104690476D01*
X132985714Y-104595238D01*
X132890476Y-104500000D01*
X132747618Y-104452381D01*
X132652380Y-104452381D01*
X132509523Y-104500000D01*
X132461904Y-104547619D01*
X132033333Y-105071429D02*
X131271428Y-105071429D01*
X130461904Y-104928571D02*
X130319047Y-104976190D01*
X130271428Y-105023810D01*
X130223809Y-105119048D01*
X130223809Y-105261905D01*
X130271428Y-105357143D01*
X130319047Y-105404762D01*
X130414285Y-105452381D01*
X130795238Y-105452381D01*
X130795238Y-104452381D01*
X130461904Y-104452381D01*
X130366666Y-104500000D01*
X130319047Y-104547619D01*
X130271428Y-104642857D01*
X130271428Y-104738095D01*
X130319047Y-104833333D01*
X130366666Y-104880952D01*
X130461904Y-104928571D01*
X130795238Y-104928571D01*
X129604762Y-104976190D02*
X129604762Y-105452381D01*
X129938095Y-104452381D02*
X129604762Y-104976190D01*
X129271428Y-104452381D01*
X128938095Y-105071429D02*
X128176190Y-105071429D01*
X127747619Y-105404762D02*
X127604762Y-105452381D01*
X127366666Y-105452381D01*
X127271428Y-105404762D01*
X127223809Y-105357143D01*
X127176190Y-105261905D01*
X127176190Y-105166667D01*
X127223809Y-105071429D01*
X127271428Y-105023810D01*
X127366666Y-104976190D01*
X127557143Y-104928571D01*
X127652381Y-104880952D01*
X127700000Y-104833333D01*
X127747619Y-104738095D01*
X127747619Y-104642857D01*
X127700000Y-104547619D01*
X127652381Y-104500000D01*
X127557143Y-104452381D01*
X127319047Y-104452381D01*
X127176190Y-104500000D01*
X126795238Y-105166667D02*
X126319047Y-105166667D01*
X126890476Y-105452381D02*
X126557143Y-104452381D01*
X126223809Y-105452381D01*
X135700001Y-102690476D02*
X135795239Y-102642857D01*
X135985715Y-102642857D01*
X136080953Y-102690476D01*
X136176191Y-102785714D01*
X136223810Y-102880952D01*
X136223810Y-103071429D01*
X136176191Y-103166667D01*
X136080953Y-103261905D01*
X135985715Y-103309524D01*
X135795239Y-103309524D01*
X135700001Y-103261905D01*
X135890477Y-102309524D02*
X136128572Y-102357143D01*
X136366668Y-102500000D01*
X136509525Y-102738095D01*
X136557144Y-102976190D01*
X136509525Y-103214286D01*
X136366668Y-103452381D01*
X136128572Y-103595238D01*
X135890477Y-103642857D01*
X135652382Y-103595238D01*
X135414287Y-103452381D01*
X135271430Y-103214286D01*
X135223810Y-102976190D01*
X135271430Y-102738095D01*
X135414287Y-102500000D01*
X135652382Y-102357143D01*
X135890477Y-102309524D01*
X134033334Y-103452381D02*
X134033334Y-102452381D01*
X133652381Y-102452381D01*
X133557143Y-102500000D01*
X133509524Y-102547619D01*
X133461905Y-102642857D01*
X133461905Y-102785714D01*
X133509524Y-102880952D01*
X133557143Y-102928571D01*
X133652381Y-102976190D01*
X134033334Y-102976190D01*
X132604762Y-103452381D02*
X132604762Y-102928571D01*
X132652381Y-102833333D01*
X132747619Y-102785714D01*
X132938096Y-102785714D01*
X133033334Y-102833333D01*
X132604762Y-103404762D02*
X132700000Y-103452381D01*
X132938096Y-103452381D01*
X133033334Y-103404762D01*
X133080953Y-103309524D01*
X133080953Y-103214286D01*
X133033334Y-103119048D01*
X132938096Y-103071429D01*
X132700000Y-103071429D01*
X132604762Y-103023810D01*
X131700000Y-102785714D02*
X131700000Y-103452381D01*
X132128572Y-102785714D02*
X132128572Y-103309524D01*
X132080953Y-103404762D01*
X131985715Y-103452381D01*
X131842857Y-103452381D01*
X131747619Y-103404762D01*
X131700000Y-103357143D01*
X131080953Y-103452381D02*
X131176191Y-103404762D01*
X131223810Y-103309524D01*
X131223810Y-102452381D01*
X129414285Y-102500000D02*
X129509523Y-102452381D01*
X129652380Y-102452381D01*
X129795238Y-102500000D01*
X129890476Y-102595238D01*
X129938095Y-102690476D01*
X129985714Y-102880952D01*
X129985714Y-103023810D01*
X129938095Y-103214286D01*
X129890476Y-103309524D01*
X129795238Y-103404762D01*
X129652380Y-103452381D01*
X129557142Y-103452381D01*
X129414285Y-103404762D01*
X129366666Y-103357143D01*
X129366666Y-103023810D01*
X129557142Y-103023810D01*
X128509523Y-102785714D02*
X128509523Y-103452381D01*
X128938095Y-102785714D02*
X128938095Y-103309524D01*
X128890476Y-103404762D01*
X128795238Y-103452381D01*
X128652380Y-103452381D01*
X128557142Y-103404762D01*
X128509523Y-103357143D01*
X127652380Y-103404762D02*
X127747618Y-103452381D01*
X127938095Y-103452381D01*
X128033333Y-103404762D01*
X128080952Y-103309524D01*
X128080952Y-102928571D01*
X128033333Y-102833333D01*
X127938095Y-102785714D01*
X127747618Y-102785714D01*
X127652380Y-102833333D01*
X127604761Y-102928571D01*
X127604761Y-103023810D01*
X128080952Y-103119048D01*
X127176190Y-102785714D02*
X127176190Y-103452381D01*
X127176190Y-102880952D02*
X127128571Y-102833333D01*
X127033333Y-102785714D01*
X126890475Y-102785714D01*
X126795237Y-102833333D01*
X126747618Y-102928571D01*
X126747618Y-103452381D01*
X125890475Y-103404762D02*
X125985713Y-103452381D01*
X126176190Y-103452381D01*
X126271428Y-103404762D01*
X126319047Y-103309524D01*
X126319047Y-102928571D01*
X126271428Y-102833333D01*
X126176190Y-102785714D01*
X125985713Y-102785714D01*
X125890475Y-102833333D01*
X125842856Y-102928571D01*
X125842856Y-103023810D01*
X126319047Y-103119048D01*
X125557142Y-102785714D02*
X125176190Y-102785714D01*
X125414285Y-102452381D02*
X125414285Y-103309524D01*
X125366666Y-103404762D01*
X125271428Y-103452381D01*
X125176190Y-103452381D01*
X124985713Y-102785714D02*
X124604761Y-102785714D01*
X124842856Y-102452381D02*
X124842856Y-103309524D01*
X124795237Y-103404762D01*
X124699999Y-103452381D01*
X124604761Y-103452381D01*
X123890474Y-103404762D02*
X123985712Y-103452381D01*
X124176189Y-103452381D01*
X124271427Y-103404762D01*
X124319046Y-103309524D01*
X124319046Y-102928571D01*
X124271427Y-102833333D01*
X124176189Y-102785714D01*
X123985712Y-102785714D01*
X123890474Y-102833333D01*
X123842855Y-102928571D01*
X123842855Y-103023810D01*
X124319046Y-103119048D01*
X134652381Y-100452381D02*
X134461905Y-100452381D01*
X134366666Y-100404762D01*
X134319047Y-100357143D01*
X134223809Y-100214286D01*
X134176190Y-100023810D01*
X134176190Y-99642857D01*
X134223809Y-99547619D01*
X134271428Y-99500000D01*
X134366666Y-99452381D01*
X134557143Y-99452381D01*
X134652381Y-99500000D01*
X134700000Y-99547619D01*
X134747619Y-99642857D01*
X134747619Y-99880952D01*
X134700000Y-99976190D01*
X134652381Y-100023810D01*
X134557143Y-100071429D01*
X134366666Y-100071429D01*
X134271428Y-100023810D01*
X134223809Y-99976190D01*
X134176190Y-99880952D01*
X132985714Y-100452381D02*
X132985714Y-99452381D01*
X132747619Y-99452381D01*
X132604761Y-99500000D01*
X132509523Y-99595238D01*
X132461904Y-99690476D01*
X132414285Y-99880952D01*
X132414285Y-100023810D01*
X132461904Y-100214286D01*
X132509523Y-100309524D01*
X132604761Y-100404762D01*
X132747619Y-100452381D01*
X132985714Y-100452381D01*
X131604761Y-100404762D02*
X131699999Y-100452381D01*
X131890476Y-100452381D01*
X131985714Y-100404762D01*
X132033333Y-100309524D01*
X132033333Y-99928571D01*
X131985714Y-99833333D01*
X131890476Y-99785714D01*
X131699999Y-99785714D01*
X131604761Y-99833333D01*
X131557142Y-99928571D01*
X131557142Y-100023810D01*
X132033333Y-100119048D01*
X130699999Y-100404762D02*
X130795237Y-100452381D01*
X130985714Y-100452381D01*
X131080952Y-100404762D01*
X131128571Y-100357143D01*
X131176190Y-100261905D01*
X131176190Y-99976190D01*
X131128571Y-99880952D01*
X131080952Y-99833333D01*
X130985714Y-99785714D01*
X130795237Y-99785714D01*
X130699999Y-99833333D01*
X130223809Y-100404762D02*
X130223809Y-100452381D01*
X130271428Y-100547619D01*
X130319047Y-100595238D01*
X129080952Y-99547619D02*
X129033333Y-99500000D01*
X128938095Y-99452381D01*
X128699999Y-99452381D01*
X128604761Y-99500000D01*
X128557142Y-99547619D01*
X128509523Y-99642857D01*
X128509523Y-99738095D01*
X128557142Y-99880952D01*
X129128571Y-100452381D01*
X128509523Y-100452381D01*
X127890476Y-99452381D02*
X127795237Y-99452381D01*
X127699999Y-99500000D01*
X127652380Y-99547619D01*
X127604761Y-99642857D01*
X127557142Y-99833333D01*
X127557142Y-100071429D01*
X127604761Y-100261905D01*
X127652380Y-100357143D01*
X127699999Y-100404762D01*
X127795237Y-100452381D01*
X127890476Y-100452381D01*
X127985714Y-100404762D01*
X128033333Y-100357143D01*
X128080952Y-100261905D01*
X128128571Y-100071429D01*
X128128571Y-99833333D01*
X128080952Y-99642857D01*
X128033333Y-99547619D01*
X127985714Y-99500000D01*
X127890476Y-99452381D01*
X126604761Y-100452381D02*
X127176190Y-100452381D01*
X126890476Y-100452381D02*
X126890476Y-99452381D01*
X126985714Y-99595238D01*
X127080952Y-99690476D01*
X127176190Y-99738095D01*
X125699999Y-99452381D02*
X126176190Y-99452381D01*
X126223809Y-99928571D01*
X126176190Y-99880952D01*
X126080952Y-99833333D01*
X125842856Y-99833333D01*
X125747618Y-99880952D01*
X125699999Y-99928571D01*
X125652380Y-100023810D01*
X125652380Y-100261905D01*
X125699999Y-100357143D01*
X125747618Y-100404762D01*
X125842856Y-100452381D01*
X126080952Y-100452381D01*
X126176190Y-100404762D01*
X126223809Y-100357143D01*
X132033333Y-98452381D02*
X132366667Y-97976190D01*
X132604762Y-98452381D02*
X132604762Y-97452381D01*
X132223809Y-97452381D01*
X132128571Y-97500000D01*
X132080952Y-97547619D01*
X132033333Y-97642857D01*
X132033333Y-97785714D01*
X132080952Y-97880952D01*
X132128571Y-97928571D01*
X132223809Y-97976190D01*
X132604762Y-97976190D01*
X131223809Y-98404762D02*
X131319047Y-98452381D01*
X131509524Y-98452381D01*
X131604762Y-98404762D01*
X131652381Y-98309524D01*
X131652381Y-97928571D01*
X131604762Y-97833333D01*
X131509524Y-97785714D01*
X131319047Y-97785714D01*
X131223809Y-97833333D01*
X131176190Y-97928571D01*
X131176190Y-98023810D01*
X131652381Y-98119048D01*
X130842857Y-97785714D02*
X130604762Y-98452381D01*
X130366666Y-97785714D01*
X129033333Y-97452381D02*
X128938094Y-97452381D01*
X128842856Y-97500000D01*
X128795237Y-97547619D01*
X128747618Y-97642857D01*
X128699999Y-97833333D01*
X128699999Y-98071429D01*
X128747618Y-98261905D01*
X128795237Y-98357143D01*
X128842856Y-98404762D01*
X128938094Y-98452381D01*
X129033333Y-98452381D01*
X129128571Y-98404762D01*
X129176190Y-98357143D01*
X129223809Y-98261905D01*
X129271428Y-98071429D01*
X129271428Y-97833333D01*
X129223809Y-97642857D01*
X129176190Y-97547619D01*
X129128571Y-97500000D01*
X129033333Y-97452381D01*
X127747618Y-98452381D02*
X128319047Y-98452381D01*
X128033333Y-98452381D02*
X128033333Y-97452381D01*
X128128571Y-97595238D01*
X128223809Y-97690476D01*
X128319047Y-97738095D01*
D12*
X155200000Y-99850000D02*
X156200000Y-99850000D01*
X156200000Y-101550000D02*
X155200000Y-101550000D01*
D13*
X96300000Y-111400000D02*
G75*
G03X96300000Y-111400000I-100000J0D01*
G01*
X97000000Y-110700000D02*
X91800000Y-110700000D01*
X91800000Y-110700000D02*
X91800000Y-114500000D01*
X91800000Y-114500000D02*
X97000000Y-114500000D01*
X97000000Y-114500000D02*
X97000000Y-110700000D01*
D12*
X105550000Y-109350000D02*
X105300000Y-109600000D01*
X105300000Y-112100000D02*
X105300000Y-112350000D01*
X105300000Y-112350000D02*
X105550000Y-112350000D01*
X108300000Y-109600000D02*
X108300000Y-109350000D01*
X108300000Y-109350000D02*
X108050000Y-109350000D01*
X108300000Y-112100000D02*
X108300000Y-112350000D01*
X108300000Y-112350000D02*
X108050000Y-112350000D01*
X98104000Y-109043000D02*
X98104000Y-104043000D01*
X95104000Y-109043000D02*
X98104000Y-109043000D01*
X95104000Y-104043000D02*
X95104000Y-109043000D01*
X98104000Y-104043000D02*
X95104000Y-104043000D01*
X132820000Y-125325000D02*
X136370000Y-125325000D01*
X132820000Y-122325000D02*
X132820000Y-125325000D01*
X136370000Y-122325000D02*
X132820000Y-122325000D01*
X136370000Y-125325000D02*
X136370000Y-122325000D01*
X133520000Y-124825000D02*
G75*
G03X133520000Y-124825000I-200000J0D01*
G01*
X132820000Y-121515000D02*
X136370000Y-121515000D01*
X132820000Y-118515000D02*
X132820000Y-121515000D01*
X136370000Y-118515000D02*
X132820000Y-118515000D01*
X136370000Y-121515000D02*
X136370000Y-118515000D01*
X133520000Y-121015000D02*
G75*
G03X133520000Y-121015000I-200000J0D01*
G01*
X132820000Y-117705000D02*
X136370000Y-117705000D01*
X132820000Y-114705000D02*
X132820000Y-117705000D01*
X136370000Y-114705000D02*
X132820000Y-114705000D01*
X136370000Y-117705000D02*
X136370000Y-114705000D01*
X133520000Y-117205000D02*
G75*
G03X133520000Y-117205000I-200000J0D01*
G01*
X164920000Y-99900000D02*
X163920000Y-100900000D01*
X163920000Y-100900000D02*
X161470000Y-100900000D01*
X161470000Y-100900000D02*
X161470000Y-96100000D01*
X161470000Y-96100000D02*
X164920000Y-96100000D01*
X164920000Y-96100000D02*
X164920000Y-99900000D01*
X83280000Y-116268000D02*
X79780000Y-116268000D01*
X83280000Y-110768000D02*
X83280000Y-113768000D01*
X79780000Y-108268000D02*
X83280000Y-108268000D01*
X79780000Y-110768000D02*
X79780000Y-113768000D01*
X117340000Y-108800000D02*
X116340000Y-108800000D01*
X116340000Y-107100000D02*
X117340000Y-107100000D01*
X102200000Y-107650000D02*
X103200000Y-107650000D01*
X103200000Y-109350000D02*
X102200000Y-109350000D01*
X164000000Y-103550000D02*
X163000000Y-103550000D01*
X163000000Y-101850000D02*
X164000000Y-101850000D01*
X87200000Y-113350000D02*
X86200000Y-113350000D01*
X86200000Y-111650000D02*
X87200000Y-111650000D01*
X102750000Y-113022000D02*
X102750000Y-112022000D01*
X104450000Y-112022000D02*
X104450000Y-113022000D01*
X87200000Y-109350000D02*
X86200000Y-109350000D01*
X86200000Y-107650000D02*
X87200000Y-107650000D01*
X87200000Y-111350000D02*
X86200000Y-111350000D01*
X86200000Y-109650000D02*
X87200000Y-109650000D01*
X77890000Y-106545000D02*
X77890000Y-105545000D01*
X79590000Y-105545000D02*
X79590000Y-106545000D01*
X169580000Y-98030000D02*
X170780000Y-98030000D01*
X170780000Y-96280000D02*
X169580000Y-96280000D01*
X117440000Y-101995000D02*
X116240000Y-101995000D01*
X116240000Y-103745000D02*
X117440000Y-103745000D01*
X116240000Y-106285000D02*
X117440000Y-106285000D01*
X117440000Y-104535000D02*
X116240000Y-104535000D01*
X86100000Y-115375000D02*
X87300000Y-115375000D01*
X87300000Y-113625000D02*
X86100000Y-113625000D01*
X100825000Y-111150000D02*
X100825000Y-112350000D01*
X102575000Y-112350000D02*
X102575000Y-111150000D01*
X98825000Y-111150000D02*
X98825000Y-112350000D01*
X100575000Y-112350000D02*
X100575000Y-111150000D01*
X150630000Y-118305000D02*
X150630000Y-119305000D01*
X151630000Y-118305000D02*
X150630000Y-118305000D01*
X151630000Y-119305000D02*
X151630000Y-118305000D01*
X150630000Y-119305000D02*
X151630000Y-119305000D01*
X154559000Y-124175000D02*
X154559000Y-118079000D01*
X147701000Y-118079000D02*
X147701000Y-125953000D01*
X147701000Y-126055000D02*
X154559000Y-126055000D01*
X154559000Y-125953000D02*
X154559000Y-124175000D01*
X158250000Y-118305000D02*
X158250000Y-119305000D01*
X159250000Y-118305000D02*
X158250000Y-118305000D01*
X159250000Y-119305000D02*
X159250000Y-118305000D01*
X158250000Y-119305000D02*
X159250000Y-119305000D01*
X162179000Y-124175000D02*
X162179000Y-118079000D01*
X155321000Y-118079000D02*
X155321000Y-125953000D01*
X155321000Y-126055000D02*
X162179000Y-126055000D01*
X162179000Y-125953000D02*
X162179000Y-124175000D01*
X143010000Y-118305000D02*
X143010000Y-119305000D01*
X144010000Y-118305000D02*
X143010000Y-118305000D01*
X144010000Y-119305000D02*
X144010000Y-118305000D01*
X143010000Y-119305000D02*
X144010000Y-119305000D01*
X146939000Y-124175000D02*
X146939000Y-118079000D01*
X140081000Y-118079000D02*
X140081000Y-125953000D01*
X140081000Y-126055000D02*
X146939000Y-126055000D01*
X146939000Y-125953000D02*
X146939000Y-124175000D01*
D14*
X117640000Y-125940000D02*
X117640000Y-126740000D01*
X117640000Y-126740000D02*
X128440000Y-126740000D01*
X128440000Y-126740000D02*
X128440000Y-125940000D01*
X114440000Y-110740000D02*
X114440000Y-125940000D01*
X114440000Y-125940000D02*
X128440000Y-125940000D01*
X128440000Y-125940000D02*
X128440000Y-110740000D01*
X128440000Y-110740000D02*
X114440000Y-110740000D01*
D12*
X155866666Y-99357143D02*
X155914285Y-99404762D01*
X156057142Y-99452381D01*
X156152380Y-99452381D01*
X156295238Y-99404762D01*
X156390476Y-99309524D01*
X156438095Y-99214286D01*
X156485714Y-99023810D01*
X156485714Y-98880952D01*
X156438095Y-98690476D01*
X156390476Y-98595238D01*
X156295238Y-98500000D01*
X156152380Y-98452381D01*
X156057142Y-98452381D01*
X155914285Y-98500000D01*
X155866666Y-98547619D01*
X155533333Y-98452381D02*
X154866666Y-98452381D01*
X155295238Y-99452381D01*
D15*
X91161428Y-114318214D02*
X91161428Y-114561071D01*
X91147143Y-114589643D01*
X91132857Y-114603929D01*
X91104286Y-114618214D01*
X91047143Y-114618214D01*
X91018571Y-114603929D01*
X91004286Y-114589643D01*
X90990000Y-114561071D01*
X90990000Y-114318214D01*
X90690000Y-114618214D02*
X90861428Y-114618214D01*
X90775714Y-114618214D02*
X90775714Y-114318214D01*
X90804285Y-114361071D01*
X90832857Y-114389643D01*
X90861428Y-114403929D01*
X90418571Y-114318214D02*
X90561428Y-114318214D01*
X90575714Y-114461071D01*
X90561428Y-114446786D01*
X90532857Y-114432500D01*
X90461428Y-114432500D01*
X90432857Y-114446786D01*
X90418571Y-114461071D01*
X90404286Y-114489643D01*
X90404286Y-114561071D01*
X90418571Y-114589643D01*
X90432857Y-114603929D01*
X90461428Y-114618214D01*
X90532857Y-114618214D01*
X90561428Y-114603929D01*
X90575714Y-114589643D01*
X94421428Y-113478571D02*
X94378571Y-113492857D01*
X94364286Y-113507143D01*
X94350000Y-113535714D01*
X94350000Y-113578571D01*
X94364286Y-113607143D01*
X94378571Y-113621429D01*
X94407143Y-113635714D01*
X94521428Y-113635714D01*
X94521428Y-113335714D01*
X94421428Y-113335714D01*
X94392857Y-113350000D01*
X94378571Y-113364286D01*
X94364286Y-113392857D01*
X94364286Y-113421429D01*
X94378571Y-113450000D01*
X94392857Y-113464286D01*
X94421428Y-113478571D01*
X94521428Y-113478571D01*
X94221428Y-113635714D02*
X94221428Y-113335714D01*
X94050000Y-113635714D01*
X94050000Y-113335714D01*
X93850000Y-113335714D02*
X93792857Y-113335714D01*
X93764285Y-113350000D01*
X93735714Y-113378571D01*
X93721428Y-113435714D01*
X93721428Y-113535714D01*
X93735714Y-113592857D01*
X93764285Y-113621429D01*
X93792857Y-113635714D01*
X93850000Y-113635714D01*
X93878571Y-113621429D01*
X93907142Y-113592857D01*
X93921428Y-113535714D01*
X93921428Y-113435714D01*
X93907142Y-113378571D01*
X93878571Y-113350000D01*
X93850000Y-113335714D01*
X93535714Y-113335714D02*
X93507142Y-113335714D01*
X93478571Y-113350000D01*
X93464285Y-113364286D01*
X93449999Y-113392857D01*
X93435714Y-113450000D01*
X93435714Y-113521429D01*
X93449999Y-113578571D01*
X93464285Y-113607143D01*
X93478571Y-113621429D01*
X93507142Y-113635714D01*
X93535714Y-113635714D01*
X93564285Y-113621429D01*
X93578571Y-113607143D01*
X93592856Y-113578571D01*
X93607142Y-113521429D01*
X93607142Y-113450000D01*
X93592856Y-113392857D01*
X93578571Y-113364286D01*
X93564285Y-113350000D01*
X93535714Y-113335714D01*
X93164285Y-113335714D02*
X93307142Y-113335714D01*
X93321428Y-113478571D01*
X93307142Y-113464286D01*
X93278571Y-113450000D01*
X93207142Y-113450000D01*
X93178571Y-113464286D01*
X93164285Y-113478571D01*
X93150000Y-113507143D01*
X93150000Y-113578571D01*
X93164285Y-113607143D01*
X93178571Y-113621429D01*
X93207142Y-113635714D01*
X93278571Y-113635714D01*
X93307142Y-113621429D01*
X93321428Y-113607143D01*
X92878571Y-113335714D02*
X93021428Y-113335714D01*
X93035714Y-113478571D01*
X93021428Y-113464286D01*
X92992857Y-113450000D01*
X92921428Y-113450000D01*
X92892857Y-113464286D01*
X92878571Y-113478571D01*
X92864286Y-113507143D01*
X92864286Y-113578571D01*
X92878571Y-113607143D01*
X92892857Y-113621429D01*
X92921428Y-113635714D01*
X92992857Y-113635714D01*
X93021428Y-113621429D01*
X93035714Y-113607143D01*
D12*
X107714286Y-112942857D02*
X107714286Y-113914286D01*
X107657143Y-114028571D01*
X107600000Y-114085714D01*
X107485714Y-114142857D01*
X107257143Y-114142857D01*
X107142857Y-114085714D01*
X107085714Y-114028571D01*
X107028571Y-113914286D01*
X107028571Y-112942857D01*
X105828571Y-114142857D02*
X106514286Y-114142857D01*
X106171428Y-114142857D02*
X106171428Y-112942857D01*
X106285714Y-113114286D01*
X106400000Y-113228571D01*
X106514286Y-113285714D01*
X93252381Y-105638095D02*
X94061905Y-105638095D01*
X94157143Y-105685714D01*
X94204762Y-105733333D01*
X94252381Y-105828571D01*
X94252381Y-106019048D01*
X94204762Y-106114286D01*
X94157143Y-106161905D01*
X94061905Y-106209524D01*
X93252381Y-106209524D01*
X93347619Y-106638095D02*
X93300000Y-106685714D01*
X93252381Y-106780952D01*
X93252381Y-107019048D01*
X93300000Y-107114286D01*
X93347619Y-107161905D01*
X93442857Y-107209524D01*
X93538095Y-107209524D01*
X93680952Y-107161905D01*
X94252381Y-106590476D01*
X94252381Y-107209524D01*
X129542857Y-122835714D02*
X130514286Y-122835714D01*
X130628571Y-122892857D01*
X130685714Y-122950000D01*
X130742857Y-123064286D01*
X130742857Y-123292857D01*
X130685714Y-123407143D01*
X130628571Y-123464286D01*
X130514286Y-123521429D01*
X129542857Y-123521429D01*
X129542857Y-123978572D02*
X129542857Y-124778572D01*
X130742857Y-124264286D01*
X129542857Y-119085714D02*
X130514286Y-119085714D01*
X130628571Y-119142857D01*
X130685714Y-119200000D01*
X130742857Y-119314286D01*
X130742857Y-119542857D01*
X130685714Y-119657143D01*
X130628571Y-119714286D01*
X130514286Y-119771429D01*
X129542857Y-119771429D01*
X130057143Y-120514286D02*
X130000000Y-120400000D01*
X129942857Y-120342857D01*
X129828571Y-120285714D01*
X129771429Y-120285714D01*
X129657143Y-120342857D01*
X129600000Y-120400000D01*
X129542857Y-120514286D01*
X129542857Y-120742857D01*
X129600000Y-120857143D01*
X129657143Y-120914286D01*
X129771429Y-120971429D01*
X129828571Y-120971429D01*
X129942857Y-120914286D01*
X130000000Y-120857143D01*
X130057143Y-120742857D01*
X130057143Y-120514286D01*
X130114286Y-120400000D01*
X130171429Y-120342857D01*
X130285714Y-120285714D01*
X130514286Y-120285714D01*
X130628571Y-120342857D01*
X130685714Y-120400000D01*
X130742857Y-120514286D01*
X130742857Y-120742857D01*
X130685714Y-120857143D01*
X130628571Y-120914286D01*
X130514286Y-120971429D01*
X130285714Y-120971429D01*
X130171429Y-120914286D01*
X130114286Y-120857143D01*
X130057143Y-120742857D01*
X129742857Y-115285714D02*
X130714286Y-115285714D01*
X130828571Y-115342857D01*
X130885714Y-115400000D01*
X130942857Y-115514286D01*
X130942857Y-115742857D01*
X130885714Y-115857143D01*
X130828571Y-115914286D01*
X130714286Y-115971429D01*
X129742857Y-115971429D01*
X130942857Y-116600000D02*
X130942857Y-116828572D01*
X130885714Y-116942857D01*
X130828571Y-117000000D01*
X130657143Y-117114286D01*
X130428571Y-117171429D01*
X129971429Y-117171429D01*
X129857143Y-117114286D01*
X129800000Y-117057143D01*
X129742857Y-116942857D01*
X129742857Y-116714286D01*
X129800000Y-116600000D01*
X129857143Y-116542857D01*
X129971429Y-116485714D01*
X130257143Y-116485714D01*
X130371429Y-116542857D01*
X130428571Y-116600000D01*
X130485714Y-116714286D01*
X130485714Y-116942857D01*
X130428571Y-117057143D01*
X130371429Y-117114286D01*
X130257143Y-117171429D01*
X164685714Y-94542857D02*
X164685714Y-95514286D01*
X164628571Y-95628571D01*
X164571428Y-95685714D01*
X164457142Y-95742857D01*
X164228571Y-95742857D01*
X164114285Y-95685714D01*
X164057142Y-95628571D01*
X163999999Y-95514286D01*
X163999999Y-94542857D01*
X162799999Y-95742857D02*
X163485714Y-95742857D01*
X163142856Y-95742857D02*
X163142856Y-94542857D01*
X163257142Y-94714286D01*
X163371428Y-94828571D01*
X163485714Y-94885714D01*
X162057142Y-94542857D02*
X161942857Y-94542857D01*
X161828571Y-94600000D01*
X161771428Y-94657143D01*
X161714285Y-94771429D01*
X161657142Y-95000000D01*
X161657142Y-95285714D01*
X161714285Y-95514286D01*
X161771428Y-95628571D01*
X161828571Y-95685714D01*
X161942857Y-95742857D01*
X162057142Y-95742857D01*
X162171428Y-95685714D01*
X162228571Y-95628571D01*
X162285714Y-95514286D01*
X162342857Y-95285714D01*
X162342857Y-95000000D01*
X162285714Y-94771429D01*
X162228571Y-94657143D01*
X162171428Y-94600000D01*
X162057142Y-94542857D01*
X81851428Y-106889429D02*
X81851428Y-107460857D01*
X82251428Y-106260857D02*
X81851428Y-106889429D01*
X81451428Y-106260857D01*
X80422857Y-107460857D02*
X81108572Y-107460857D01*
X80765714Y-107460857D02*
X80765714Y-106260857D01*
X80880000Y-106432286D01*
X80994286Y-106546571D01*
X81108572Y-106603714D01*
X119966666Y-108357143D02*
X120014285Y-108404762D01*
X120157142Y-108452381D01*
X120252380Y-108452381D01*
X120395238Y-108404762D01*
X120490476Y-108309524D01*
X120538095Y-108214286D01*
X120585714Y-108023810D01*
X120585714Y-107880952D01*
X120538095Y-107690476D01*
X120490476Y-107595238D01*
X120395238Y-107500000D01*
X120252380Y-107452381D01*
X120157142Y-107452381D01*
X120014285Y-107500000D01*
X119966666Y-107547619D01*
X119014285Y-108452381D02*
X119585714Y-108452381D01*
X119300000Y-108452381D02*
X119300000Y-107452381D01*
X119395238Y-107595238D01*
X119490476Y-107690476D01*
X119585714Y-107738095D01*
X102866666Y-107157143D02*
X102914285Y-107204762D01*
X103057142Y-107252381D01*
X103152380Y-107252381D01*
X103295238Y-107204762D01*
X103390476Y-107109524D01*
X103438095Y-107014286D01*
X103485714Y-106823810D01*
X103485714Y-106680952D01*
X103438095Y-106490476D01*
X103390476Y-106395238D01*
X103295238Y-106300000D01*
X103152380Y-106252381D01*
X103057142Y-106252381D01*
X102914285Y-106300000D01*
X102866666Y-106347619D01*
X102485714Y-106347619D02*
X102438095Y-106300000D01*
X102342857Y-106252381D01*
X102104761Y-106252381D01*
X102009523Y-106300000D01*
X101961904Y-106347619D01*
X101914285Y-106442857D01*
X101914285Y-106538095D01*
X101961904Y-106680952D01*
X102533333Y-107252381D01*
X101914285Y-107252381D01*
X160766666Y-103157143D02*
X160814285Y-103204762D01*
X160957142Y-103252381D01*
X161052380Y-103252381D01*
X161195238Y-103204762D01*
X161290476Y-103109524D01*
X161338095Y-103014286D01*
X161385714Y-102823810D01*
X161385714Y-102680952D01*
X161338095Y-102490476D01*
X161290476Y-102395238D01*
X161195238Y-102300000D01*
X161052380Y-102252381D01*
X160957142Y-102252381D01*
X160814285Y-102300000D01*
X160766666Y-102347619D01*
X160195238Y-102680952D02*
X160290476Y-102633333D01*
X160338095Y-102585714D01*
X160385714Y-102490476D01*
X160385714Y-102442857D01*
X160338095Y-102347619D01*
X160290476Y-102300000D01*
X160195238Y-102252381D01*
X160004761Y-102252381D01*
X159909523Y-102300000D01*
X159861904Y-102347619D01*
X159814285Y-102442857D01*
X159814285Y-102490476D01*
X159861904Y-102585714D01*
X159909523Y-102633333D01*
X160004761Y-102680952D01*
X160195238Y-102680952D01*
X160290476Y-102728571D01*
X160338095Y-102776190D01*
X160385714Y-102871429D01*
X160385714Y-103061905D01*
X160338095Y-103157143D01*
X160290476Y-103204762D01*
X160195238Y-103252381D01*
X160004761Y-103252381D01*
X159909523Y-103204762D01*
X159861904Y-103157143D01*
X159814285Y-103061905D01*
X159814285Y-102871429D01*
X159861904Y-102776190D01*
X159909523Y-102728571D01*
X160004761Y-102680952D01*
X89766666Y-112957143D02*
X89814285Y-113004762D01*
X89957142Y-113052381D01*
X90052380Y-113052381D01*
X90195238Y-113004762D01*
X90290476Y-112909524D01*
X90338095Y-112814286D01*
X90385714Y-112623810D01*
X90385714Y-112480952D01*
X90338095Y-112290476D01*
X90290476Y-112195238D01*
X90195238Y-112100000D01*
X90052380Y-112052381D01*
X89957142Y-112052381D01*
X89814285Y-112100000D01*
X89766666Y-112147619D01*
X89290476Y-113052381D02*
X89100000Y-113052381D01*
X89004761Y-113004762D01*
X88957142Y-112957143D01*
X88861904Y-112814286D01*
X88814285Y-112623810D01*
X88814285Y-112242857D01*
X88861904Y-112147619D01*
X88909523Y-112100000D01*
X89004761Y-112052381D01*
X89195238Y-112052381D01*
X89290476Y-112100000D01*
X89338095Y-112147619D01*
X89385714Y-112242857D01*
X89385714Y-112480952D01*
X89338095Y-112576190D01*
X89290476Y-112623810D01*
X89195238Y-112671429D01*
X89004761Y-112671429D01*
X88909523Y-112623810D01*
X88861904Y-112576190D01*
X88814285Y-112480952D01*
X104642857Y-115357143D02*
X104690476Y-115404762D01*
X104833333Y-115452381D01*
X104928571Y-115452381D01*
X105071429Y-115404762D01*
X105166667Y-115309524D01*
X105214286Y-115214286D01*
X105261905Y-115023810D01*
X105261905Y-114880952D01*
X105214286Y-114690476D01*
X105166667Y-114595238D01*
X105071429Y-114500000D01*
X104928571Y-114452381D01*
X104833333Y-114452381D01*
X104690476Y-114500000D01*
X104642857Y-114547619D01*
X103690476Y-115452381D02*
X104261905Y-115452381D01*
X103976191Y-115452381D02*
X103976191Y-114452381D01*
X104071429Y-114595238D01*
X104166667Y-114690476D01*
X104261905Y-114738095D01*
X103071429Y-114452381D02*
X102976190Y-114452381D01*
X102880952Y-114500000D01*
X102833333Y-114547619D01*
X102785714Y-114642857D01*
X102738095Y-114833333D01*
X102738095Y-115071429D01*
X102785714Y-115261905D01*
X102833333Y-115357143D01*
X102880952Y-115404762D01*
X102976190Y-115452381D01*
X103071429Y-115452381D01*
X103166667Y-115404762D01*
X103214286Y-115357143D01*
X103261905Y-115261905D01*
X103309524Y-115071429D01*
X103309524Y-114833333D01*
X103261905Y-114642857D01*
X103214286Y-114547619D01*
X103166667Y-114500000D01*
X103071429Y-114452381D01*
X90642857Y-108957143D02*
X90690476Y-109004762D01*
X90833333Y-109052381D01*
X90928571Y-109052381D01*
X91071429Y-109004762D01*
X91166667Y-108909524D01*
X91214286Y-108814286D01*
X91261905Y-108623810D01*
X91261905Y-108480952D01*
X91214286Y-108290476D01*
X91166667Y-108195238D01*
X91071429Y-108100000D01*
X90928571Y-108052381D01*
X90833333Y-108052381D01*
X90690476Y-108100000D01*
X90642857Y-108147619D01*
X89690476Y-109052381D02*
X90261905Y-109052381D01*
X89976191Y-109052381D02*
X89976191Y-108052381D01*
X90071429Y-108195238D01*
X90166667Y-108290476D01*
X90261905Y-108338095D01*
X88738095Y-109052381D02*
X89309524Y-109052381D01*
X89023810Y-109052381D02*
X89023810Y-108052381D01*
X89119048Y-108195238D01*
X89214286Y-108290476D01*
X89309524Y-108338095D01*
X90642857Y-110757143D02*
X90690476Y-110804762D01*
X90833333Y-110852381D01*
X90928571Y-110852381D01*
X91071429Y-110804762D01*
X91166667Y-110709524D01*
X91214286Y-110614286D01*
X91261905Y-110423810D01*
X91261905Y-110280952D01*
X91214286Y-110090476D01*
X91166667Y-109995238D01*
X91071429Y-109900000D01*
X90928571Y-109852381D01*
X90833333Y-109852381D01*
X90690476Y-109900000D01*
X90642857Y-109947619D01*
X89690476Y-110852381D02*
X90261905Y-110852381D01*
X89976191Y-110852381D02*
X89976191Y-109852381D01*
X90071429Y-109995238D01*
X90166667Y-110090476D01*
X90261905Y-110138095D01*
X89309524Y-109947619D02*
X89261905Y-109900000D01*
X89166667Y-109852381D01*
X88928571Y-109852381D01*
X88833333Y-109900000D01*
X88785714Y-109947619D01*
X88738095Y-110042857D01*
X88738095Y-110138095D01*
X88785714Y-110280952D01*
X89357143Y-110852381D01*
X88738095Y-110852381D01*
X170346666Y-95507381D02*
X170680000Y-95031190D01*
X170918095Y-95507381D02*
X170918095Y-94507381D01*
X170537142Y-94507381D01*
X170441904Y-94555000D01*
X170394285Y-94602619D01*
X170346666Y-94697857D01*
X170346666Y-94840714D01*
X170394285Y-94935952D01*
X170441904Y-94983571D01*
X170537142Y-95031190D01*
X170918095Y-95031190D01*
X169870476Y-95507381D02*
X169680000Y-95507381D01*
X169584761Y-95459762D01*
X169537142Y-95412143D01*
X169441904Y-95269286D01*
X169394285Y-95078810D01*
X169394285Y-94697857D01*
X169441904Y-94602619D01*
X169489523Y-94555000D01*
X169584761Y-94507381D01*
X169775238Y-94507381D01*
X169870476Y-94555000D01*
X169918095Y-94602619D01*
X169965714Y-94697857D01*
X169965714Y-94935952D01*
X169918095Y-95031190D01*
X169870476Y-95078810D01*
X169775238Y-95126429D01*
X169584761Y-95126429D01*
X169489523Y-95078810D01*
X169441904Y-95031190D01*
X169394285Y-94935952D01*
X120642857Y-105952381D02*
X120976191Y-105476190D01*
X121214286Y-105952381D02*
X121214286Y-104952381D01*
X120833333Y-104952381D01*
X120738095Y-105000000D01*
X120690476Y-105047619D01*
X120642857Y-105142857D01*
X120642857Y-105285714D01*
X120690476Y-105380952D01*
X120738095Y-105428571D01*
X120833333Y-105476190D01*
X121214286Y-105476190D01*
X119690476Y-105952381D02*
X120261905Y-105952381D01*
X119976191Y-105952381D02*
X119976191Y-104952381D01*
X120071429Y-105095238D01*
X120166667Y-105190476D01*
X120261905Y-105238095D01*
X119357143Y-104952381D02*
X118738095Y-104952381D01*
X119071429Y-105333333D01*
X118928571Y-105333333D01*
X118833333Y-105380952D01*
X118785714Y-105428571D01*
X118738095Y-105523810D01*
X118738095Y-105761905D01*
X118785714Y-105857143D01*
X118833333Y-105904762D01*
X118928571Y-105952381D01*
X119214286Y-105952381D01*
X119309524Y-105904762D01*
X119357143Y-105857143D01*
X120642857Y-103452381D02*
X120976191Y-102976190D01*
X121214286Y-103452381D02*
X121214286Y-102452381D01*
X120833333Y-102452381D01*
X120738095Y-102500000D01*
X120690476Y-102547619D01*
X120642857Y-102642857D01*
X120642857Y-102785714D01*
X120690476Y-102880952D01*
X120738095Y-102928571D01*
X120833333Y-102976190D01*
X121214286Y-102976190D01*
X119690476Y-103452381D02*
X120261905Y-103452381D01*
X119976191Y-103452381D02*
X119976191Y-102452381D01*
X120071429Y-102595238D01*
X120166667Y-102690476D01*
X120261905Y-102738095D01*
X118833333Y-102785714D02*
X118833333Y-103452381D01*
X119071429Y-102404762D02*
X119309524Y-103119048D01*
X118690476Y-103119048D01*
X87342857Y-112852381D02*
X87676191Y-112376190D01*
X87914286Y-112852381D02*
X87914286Y-111852381D01*
X87533333Y-111852381D01*
X87438095Y-111900000D01*
X87390476Y-111947619D01*
X87342857Y-112042857D01*
X87342857Y-112185714D01*
X87390476Y-112280952D01*
X87438095Y-112328571D01*
X87533333Y-112376190D01*
X87914286Y-112376190D01*
X86390476Y-112852381D02*
X86961905Y-112852381D01*
X86676191Y-112852381D02*
X86676191Y-111852381D01*
X86771429Y-111995238D01*
X86866667Y-112090476D01*
X86961905Y-112138095D01*
X85533333Y-111852381D02*
X85723810Y-111852381D01*
X85819048Y-111900000D01*
X85866667Y-111947619D01*
X85961905Y-112090476D01*
X86009524Y-112280952D01*
X86009524Y-112661905D01*
X85961905Y-112757143D01*
X85914286Y-112804762D01*
X85819048Y-112852381D01*
X85628571Y-112852381D01*
X85533333Y-112804762D01*
X85485714Y-112757143D01*
X85438095Y-112661905D01*
X85438095Y-112423810D01*
X85485714Y-112328571D01*
X85533333Y-112280952D01*
X85628571Y-112233333D01*
X85819048Y-112233333D01*
X85914286Y-112280952D01*
X85961905Y-112328571D01*
X86009524Y-112423810D01*
X104252381Y-111107143D02*
X103776190Y-110773809D01*
X104252381Y-110535714D02*
X103252381Y-110535714D01*
X103252381Y-110916667D01*
X103300000Y-111011905D01*
X103347619Y-111059524D01*
X103442857Y-111107143D01*
X103585714Y-111107143D01*
X103680952Y-111059524D01*
X103728571Y-111011905D01*
X103776190Y-110916667D01*
X103776190Y-110535714D01*
X104252381Y-112059524D02*
X104252381Y-111488095D01*
X104252381Y-111773809D02*
X103252381Y-111773809D01*
X103395238Y-111678571D01*
X103490476Y-111583333D01*
X103538095Y-111488095D01*
X103252381Y-112392857D02*
X103252381Y-113059524D01*
X104252381Y-112630952D01*
X102252381Y-111107143D02*
X101776190Y-110773809D01*
X102252381Y-110535714D02*
X101252381Y-110535714D01*
X101252381Y-110916667D01*
X101300000Y-111011905D01*
X101347619Y-111059524D01*
X101442857Y-111107143D01*
X101585714Y-111107143D01*
X101680952Y-111059524D01*
X101728571Y-111011905D01*
X101776190Y-110916667D01*
X101776190Y-110535714D01*
X102252381Y-112059524D02*
X102252381Y-111488095D01*
X102252381Y-111773809D02*
X101252381Y-111773809D01*
X101395238Y-111678571D01*
X101490476Y-111583333D01*
X101538095Y-111488095D01*
X101680952Y-112630952D02*
X101633333Y-112535714D01*
X101585714Y-112488095D01*
X101490476Y-112440476D01*
X101442857Y-112440476D01*
X101347619Y-112488095D01*
X101300000Y-112535714D01*
X101252381Y-112630952D01*
X101252381Y-112821429D01*
X101300000Y-112916667D01*
X101347619Y-112964286D01*
X101442857Y-113011905D01*
X101490476Y-113011905D01*
X101585714Y-112964286D01*
X101633333Y-112916667D01*
X101680952Y-112821429D01*
X101680952Y-112630952D01*
X101728571Y-112535714D01*
X101776190Y-112488095D01*
X101871429Y-112440476D01*
X102061905Y-112440476D01*
X102157143Y-112488095D01*
X102204762Y-112535714D01*
X102252381Y-112630952D01*
X102252381Y-112821429D01*
X102204762Y-112916667D01*
X102157143Y-112964286D01*
X102061905Y-113011905D01*
X101871429Y-113011905D01*
X101776190Y-112964286D01*
X101728571Y-112916667D01*
X101680952Y-112821429D01*
X154252381Y-114961905D02*
X155061905Y-114961905D01*
X155157143Y-115009524D01*
X155204762Y-115057143D01*
X155252381Y-115152381D01*
X155252381Y-115342858D01*
X155204762Y-115438096D01*
X155157143Y-115485715D01*
X155061905Y-115533334D01*
X154252381Y-115533334D01*
X155252381Y-116533334D02*
X155252381Y-115961905D01*
X155252381Y-116247619D02*
X154252381Y-116247619D01*
X154395238Y-116152381D01*
X154490476Y-116057143D01*
X154538095Y-115961905D01*
X154252381Y-116866667D02*
X154252381Y-117485715D01*
X154633333Y-117152381D01*
X154633333Y-117295239D01*
X154680952Y-117390477D01*
X154728571Y-117438096D01*
X154823810Y-117485715D01*
X155061905Y-117485715D01*
X155157143Y-117438096D01*
X155204762Y-117390477D01*
X155252381Y-117295239D01*
X155252381Y-117009524D01*
X155204762Y-116914286D01*
X155157143Y-116866667D01*
X161872381Y-114961905D02*
X162681905Y-114961905D01*
X162777143Y-115009524D01*
X162824762Y-115057143D01*
X162872381Y-115152381D01*
X162872381Y-115342858D01*
X162824762Y-115438096D01*
X162777143Y-115485715D01*
X162681905Y-115533334D01*
X161872381Y-115533334D01*
X162872381Y-116533334D02*
X162872381Y-115961905D01*
X162872381Y-116247619D02*
X161872381Y-116247619D01*
X162015238Y-116152381D01*
X162110476Y-116057143D01*
X162158095Y-115961905D01*
X161967619Y-116914286D02*
X161920000Y-116961905D01*
X161872381Y-117057143D01*
X161872381Y-117295239D01*
X161920000Y-117390477D01*
X161967619Y-117438096D01*
X162062857Y-117485715D01*
X162158095Y-117485715D01*
X162300952Y-117438096D01*
X162872381Y-116866667D01*
X162872381Y-117485715D01*
X146632381Y-114961905D02*
X147441905Y-114961905D01*
X147537143Y-115009524D01*
X147584762Y-115057143D01*
X147632381Y-115152381D01*
X147632381Y-115342858D01*
X147584762Y-115438096D01*
X147537143Y-115485715D01*
X147441905Y-115533334D01*
X146632381Y-115533334D01*
X147632381Y-116533334D02*
X147632381Y-115961905D01*
X147632381Y-116247619D02*
X146632381Y-116247619D01*
X146775238Y-116152381D01*
X146870476Y-116057143D01*
X146918095Y-115961905D01*
X146965714Y-117390477D02*
X147632381Y-117390477D01*
X146584762Y-117152381D02*
X147299048Y-116914286D01*
X147299048Y-117533334D01*
D16*
X122167891Y-116654086D02*
X122196436Y-116682630D01*
X122282070Y-116711175D01*
X122339160Y-116711175D01*
X122424794Y-116682630D01*
X122481883Y-116625541D01*
X122510428Y-116568451D01*
X122538973Y-116454272D01*
X122538973Y-116368638D01*
X122510428Y-116254459D01*
X122481883Y-116197370D01*
X122424794Y-116140280D01*
X122339160Y-116111735D01*
X122282070Y-116111735D01*
X122196436Y-116140280D01*
X122167891Y-116168825D01*
X121796809Y-116111735D02*
X121682630Y-116111735D01*
X121625541Y-116140280D01*
X121568451Y-116197370D01*
X121539906Y-116311549D01*
X121539906Y-116511362D01*
X121568451Y-116625541D01*
X121625541Y-116682630D01*
X121682630Y-116711175D01*
X121796809Y-116711175D01*
X121853899Y-116682630D01*
X121910988Y-116625541D01*
X121939533Y-116511362D01*
X121939533Y-116311549D01*
X121910988Y-116197370D01*
X121853899Y-116140280D01*
X121796809Y-116111735D01*
X121283003Y-116711175D02*
X121283003Y-116111735D01*
X120940466Y-116711175D01*
X120940466Y-116111735D01*
X120341026Y-116711175D02*
X120683563Y-116711175D01*
X120512294Y-116711175D02*
X120512294Y-116111735D01*
X120569384Y-116197370D01*
X120626473Y-116254459D01*
X120683563Y-116283004D01*
X124337292Y-115361175D02*
X124337292Y-114761735D01*
X124137479Y-115189907D01*
X123937666Y-114761735D01*
X123937666Y-115361175D01*
X123652218Y-115361175D02*
X123652218Y-114961549D01*
X123652218Y-114761735D02*
X123680763Y-114790280D01*
X123652218Y-114818825D01*
X123623673Y-114790280D01*
X123652218Y-114761735D01*
X123652218Y-114818825D01*
X123109867Y-115332630D02*
X123166957Y-115361175D01*
X123281136Y-115361175D01*
X123338225Y-115332630D01*
X123366770Y-115304086D01*
X123395315Y-115246996D01*
X123395315Y-115075728D01*
X123366770Y-115018638D01*
X123338225Y-114990093D01*
X123281136Y-114961549D01*
X123166957Y-114961549D01*
X123109867Y-114990093D01*
X122852964Y-115361175D02*
X122852964Y-114961549D01*
X122852964Y-115075728D02*
X122824419Y-115018638D01*
X122795875Y-114990093D01*
X122738785Y-114961549D01*
X122681696Y-114961549D01*
X122396248Y-115361175D02*
X122453337Y-115332630D01*
X122481882Y-115304086D01*
X122510427Y-115246996D01*
X122510427Y-115075728D01*
X122481882Y-115018638D01*
X122453337Y-114990093D01*
X122396248Y-114961549D01*
X122310614Y-114961549D01*
X122253524Y-114990093D01*
X122224979Y-115018638D01*
X122196435Y-115075728D01*
X122196435Y-115246996D01*
X122224979Y-115304086D01*
X122253524Y-115332630D01*
X122310614Y-115361175D01*
X122396248Y-115361175D01*
X121968077Y-115332630D02*
X121882443Y-115361175D01*
X121739719Y-115361175D01*
X121682629Y-115332630D01*
X121654085Y-115304086D01*
X121625540Y-115246996D01*
X121625540Y-115189907D01*
X121654085Y-115132817D01*
X121682629Y-115104272D01*
X121739719Y-115075728D01*
X121853898Y-115047183D01*
X121910987Y-115018638D01*
X121939532Y-114990093D01*
X121968077Y-114933004D01*
X121968077Y-114875914D01*
X121939532Y-114818825D01*
X121910987Y-114790280D01*
X121853898Y-114761735D01*
X121711174Y-114761735D01*
X121625540Y-114790280D01*
X121368637Y-115361175D02*
X121368637Y-114761735D01*
X121225913Y-114761735D01*
X121140279Y-114790280D01*
X121083190Y-114847370D01*
X121054645Y-114904459D01*
X121026100Y-115018638D01*
X121026100Y-115104272D01*
X121054645Y-115218451D01*
X121083190Y-115275541D01*
X121140279Y-115332630D01*
X121225913Y-115361175D01*
X121368637Y-115361175D01*
X120911921Y-115418265D02*
X120455205Y-115418265D01*
X119969944Y-115304086D02*
X119998489Y-115332630D01*
X120084123Y-115361175D01*
X120141213Y-115361175D01*
X120226847Y-115332630D01*
X120283936Y-115275541D01*
X120312481Y-115218451D01*
X120341026Y-115104272D01*
X120341026Y-115018638D01*
X120312481Y-114904459D01*
X120283936Y-114847370D01*
X120226847Y-114790280D01*
X120141213Y-114761735D01*
X120084123Y-114761735D01*
X119998489Y-114790280D01*
X119969944Y-114818825D01*
X119456138Y-115361175D02*
X119456138Y-115047183D01*
X119484683Y-114990093D01*
X119541773Y-114961549D01*
X119655952Y-114961549D01*
X119713041Y-114990093D01*
X119456138Y-115332630D02*
X119513228Y-115361175D01*
X119655952Y-115361175D01*
X119713041Y-115332630D01*
X119741586Y-115275541D01*
X119741586Y-115218451D01*
X119713041Y-115161362D01*
X119655952Y-115132817D01*
X119513228Y-115132817D01*
X119456138Y-115104272D01*
X119170691Y-115361175D02*
X119170691Y-114961549D01*
X119170691Y-115075728D02*
X119142146Y-115018638D01*
X119113602Y-114990093D01*
X119056512Y-114961549D01*
X118999423Y-114961549D01*
X118542706Y-115361175D02*
X118542706Y-114761735D01*
X118542706Y-115332630D02*
X118599796Y-115361175D01*
X118713975Y-115361175D01*
X118771064Y-115332630D01*
X118799609Y-115304086D01*
X118828154Y-115246996D01*
X118828154Y-115075728D01*
X118799609Y-115018638D01*
X118771064Y-114990093D01*
X118713975Y-114961549D01*
X118599796Y-114961549D01*
X118542706Y-114990093D01*
M02*
